<svg version="1.1" id="Layer_1" xmlns="http://www.w3.org/2000/svg" xmlns:xlink="http://www.w3.org/1999/xlink" x="0px" y="0px"
	 width="100%" viewBox="0 0 1024 1024" enable-background="new 0 0 1024 1024" xml:space="preserve">
<path fill="#000000" opacity="1.000000" stroke="none" 
	d="
M417.620789,689.602417 
	C391.594513,680.104431 377.206940,661.497803 373.711395,634.776367 
	C369.376495,601.638000 384.528351,576.684265 409.306793,556.952820 
	C416.232880,551.437561 419.308228,546.006287 419.900177,537.394287 
	C421.371948,515.982361 441.355103,496.150513 463.585510,492.723022 
	C481.001740,490.037811 496.260345,494.504425 509.182129,506.417145 
	C512.024414,509.037445 513.629578,508.480927 516.177185,506.161774 
	C533.999268,489.937317 558.818542,487.144348 579.625732,499.192902 
	C596.364685,508.885651 604.867920,523.949768 606.025513,542.983704 
	C606.328491,547.965332 608.225586,550.769592 612.007202,553.494141 
	C630.669556,566.940125 644.617920,584.161804 650.468994,606.644470 
	C657.999146,635.578735 648.205566,667.358398 621.222351,683.728333 
	C604.596191,693.815002 586.441711,695.366516 567.695190,691.836609 
	C550.319946,688.564941 534.117126,682.110535 519.402283,672.329407 
	C514.616272,669.148193 511.071075,668.987976 506.159912,672.217163 
	C491.565460,681.813477 475.595612,688.416504 458.383636,691.715515 
	C444.787964,694.321350 431.263275,694.345337 417.620789,689.602417 
M434.450745,530.995422 
	C428.239288,546.326721 431.793976,560.942871 438.591858,574.852356 
	C454.611969,607.632141 482.008972,629.978516 510.193451,651.506897 
	C512.589478,653.337097 514.527710,652.323242 516.491943,650.838013 
	C539.859253,633.169312 561.474609,613.656677 578.374939,589.541748 
	C587.763367,576.145447 594.268188,561.510010 593.804138,544.507019 
	C593.062683,517.343506 567.255493,498.453705 541.163147,506.068695 
	C531.490906,508.891510 523.969482,514.632690 517.748535,522.316040 
	C515.489014,525.106750 512.740967,526.472839 509.505493,524.457153 
	C507.743011,523.359070 506.455505,521.438599 505.085083,519.780518 
	C484.710358,495.128876 447.090424,500.743073 434.450745,530.995422 
M529.829529,656.287964 
	C528.218140,657.596497 526.606750,658.905029 524.910889,660.282166 
	C527.531860,663.067993 530.431458,664.403992 533.187683,665.882935 
	C552.747803,676.378296 573.092529,683.329407 595.802917,679.794067 
	C623.650574,675.459106 642.480591,649.519714 640.266357,619.615601 
	C638.958801,601.957153 630.041443,587.824219 618.169434,575.409729 
	C614.137451,571.193481 609.800842,567.098755 604.246826,563.638794 
	C600.455078,576.794250 594.871277,588.239258 587.261414,598.686279 
	C571.242615,620.677063 551.551086,639.005188 529.829529,656.287964 
M406.641327,576.150513 
	C393.517059,590.864014 384.651031,607.223267 385.269470,627.752380 
	C386.146881,656.878357 409.870148,680.332214 438.926331,680.757690 
	C461.092682,681.082214 480.520935,673.159851 498.965302,661.895081 
	C499.461090,661.592224 499.754028,660.957336 500.425995,660.125122 
	C490.580017,652.633179 481.209015,644.947144 472.346008,636.684021 
	C454.884338,620.404236 438.129883,603.502441 427.683197,581.559082 
	C425.136230,576.209167 423.205322,570.565918 420.800995,564.584534 
	C415.378510,567.585327 411.211884,571.552307 406.641327,576.150513 
z"/>
<path fill="#000000" opacity="1.000000" stroke="none" 
	d="
M412.143738,441.672058 
	C403.362885,420.866516 400.746216,399.890411 407.785736,378.501587 
	C413.546295,360.998871 423.574402,347.124023 443.105713,343.479889 
	C460.320648,340.267883 474.280579,347.218994 484.347290,360.410126 
	C503.773438,385.865448 507.737122,414.460571 496.889587,444.458344 
	C490.919250,460.968597 479.179626,472.335510 460.875519,474.513062 
	C445.108887,476.388763 432.930481,468.947754 422.563293,457.912628 
	C418.189178,453.256744 415.018372,447.772156 412.143738,441.672058 
M428.309753,365.821045 
	C410.415894,387.698761 414.333344,428.157715 430.802246,447.954926 
	C449.155701,470.017609 475.051422,465.803528 485.719604,439.217316 
	C490.359619,427.653839 491.519714,415.711334 489.639923,403.498871 
	C487.252167,387.986084 481.552338,373.963684 469.557617,363.278473 
	C456.494446,351.641418 440.837219,352.528168 428.309753,365.821045 
z"/>
<path fill="#000000" opacity="1.000000" stroke="none" 
	d="
M528.790039,384.030090 
	C534.099182,369.313477 542.396301,357.105438 555.349854,348.914520 
	C575.948303,335.889557 599.832214,343.037262 612.766235,365.495880 
	C628.480774,392.782745 623.283020,436.604340 601.631836,459.367584 
	C585.381714,476.452332 563.566467,479.664337 546.319824,467.238464 
	C533.365112,457.904877 527.330566,444.406860 524.765320,429.162476 
	C522.205078,413.947906 523.669128,399.001465 528.790039,384.030090 
M536.324951,405.903717 
	C536.317505,411.400726 535.928101,416.929657 536.384766,422.387848 
	C537.245544,432.675293 540.247681,442.278473 546.986389,450.423859 
	C559.168579,465.148926 576.847473,466.190521 590.631348,452.955597 
	C609.647766,434.696442 615.552856,396.444733 602.780273,373.489990 
	C596.580078,362.346985 588.132568,354.296997 574.250183,355.345703 
	C564.069031,356.114777 556.636475,361.978058 550.657043,369.738251 
	C542.648438,380.131836 538.263672,392.078766 536.324951,405.903717 
z"/>
<path fill="#000000" opacity="1.000000" stroke="none" 
	d="
M363.132202,540.091553 
	C343.010010,529.263855 334.137115,511.517303 330.699585,490.314697 
	C328.948517,479.513977 330.410156,469.064484 335.098999,459.172089 
	C346.482147,435.156189 373.310974,433.219360 390.395844,445.752594 
	C405.242584,456.644012 412.517975,471.876648 415.375427,489.676636 
	C416.972382,499.624298 416.085266,509.312103 412.667480,518.668701 
	C404.762054,540.310730 384.814331,548.965515 363.132202,540.091553 
M371.064819,529.651001 
	C383.207703,533.547119 393.859009,529.090332 399.466858,517.766968 
	C409.417938,497.673706 401.173096,467.786957 382.266113,455.416016 
	C368.132568,446.168365 352.685822,450.572662 345.802612,465.949493 
	C342.155945,474.096130 341.404449,482.637451 343.347534,491.352905 
	C347.011993,507.789215 354.265717,521.712219 371.064819,529.651001 
z"/>
<path fill="#000000" opacity="1.000000" stroke="none" 
	d="
M693.585815,469.713379 
	C697.971436,497.030670 690.368469,519.852478 668.402222,536.259338 
	C646.917114,552.306824 618.562012,541.831421 612.071411,515.834351 
	C605.673645,490.208923 612.241943,467.615204 631.279358,449.255432 
	C645.582458,435.461395 665.868286,434.202545 679.921326,445.506409 
	C687.521118,451.619385 691.519348,459.912537 693.585815,469.713379 
M636.852112,528.794800 
	C643.989014,532.325806 650.997803,531.737122 657.902771,528.121826 
	C677.376587,517.925842 688.611511,486.543579 680.019470,466.339905 
	C676.309937,457.617218 670.365601,451.550568 660.457031,450.725647 
	C652.152710,450.034302 644.959656,453.262604 639.182922,458.843262 
	C625.271851,472.282257 620.072510,489.068298 622.687805,507.975403 
	C623.872559,516.540466 627.779663,524.207397 636.852112,528.794800 
z"/>
</svg>